<!DOCTYPE svg PUBLIC "-//W3C//DTD SVG 20010904//EN" "http://www.w3.org/TR/2001/REC-SVG-20010904/DTD/svg10.dtd">
<svg version="1.0" xmlns="http://www.w3.org/2000/svg" width="1600px" height="900px" viewBox="0 0 16000 9000" preserveAspectRatio="xMidYMid meet">
<g id="layer1" fill="#361e0d" stroke="none">
 <path d="M9325 7607 c-3 -7 -4 -105 -3 -217 l3 -205 165 0 165 0 0 215 0 215 -163 3 c-126 2 -164 0 -167 -11z"/>
 <path d="M10305 7607 c-3 -7 -4 -105 -3 -217 l3 -205 165 0 165 0 0 215 0 215 -163 3 c-126 2 -164 0 -167 -11z"/>
 <path d="M9194 6886 c-3 -7 -4 -35 -2 -62 l3 -49 780 0 780 0 0 60 0 60 -778 3 c-654 2 -778 0 -783 -12z"/>
 <path d="M9325 6457 c-3 -7 -4 -107 -3 -222 l3 -210 165 0 165 0 0 220 0 220 -163 3 c-126 2 -164 0 -167 -11z"/>
 <path d="M10305 6457 c-3 -7 -4 -107 -3 -222 l3 -210 165 0 165 0 0 220 0 220 -163 3 c-126 2 -164 0 -167 -11z"/>
 <path d="M9194 5796 c-3 -7 -4 -35 -2 -62 l3 -49 780 0 780 0 0 60 0 60 -778 3 c-654 2 -778 0 -783 -12z"/>
 <path d="M9325 5477 c-3 -7 -4 -107 -3 -222 l3 -210 165 0 165 0 0 220 0 220 -163 3 c-126 2 -164 0 -167 -11z"/>
 <path d="M10305 5477 c-3 -7 -4 -107 -3 -222 l3 -210 165 0 165 0 0 220 0 220 -163 3 c-126 2 -164 0 -167 -11z"/>
 </g>

</svg>