<!DOCTYPE svg PUBLIC "-//W3C//DTD SVG 20010904//EN" "http://www.w3.org/TR/2001/REC-SVG-20010904/DTD/svg10.dtd">
<svg version="1.0" xmlns="http://www.w3.org/2000/svg" width="1600px" height="900px" viewBox="0 0 16000 9000" preserveAspectRatio="xMidYMid meet">
<g id="layer1" fill="#2aa6ac" stroke="none">
 <path d="M15896 2559 c-116 -153 -322 -401 -484 -584 -149 -168 -629 -648 -797 -797 -455 -403 -948 -771 -1445 -1077 l-163 -101 1496 0 1497 0 0 1345 c0 740 -1 1345 -2 1345 -2 0 -48 -59 -102 -131z"/>
 <path d="M0 1340 l0 -1340 1492 0 c821 0 1488 4 1483 8 -6 5 -68 44 -140 88 -1022 619 -2001 1503 -2750 2482 -43 56 -80 102 -81 102 -2 0 -4 -603 -4 -1340z"/>
 </g>
<g id="layer2" fill="#71c4c9" stroke="none">
 <path d="M2340 8816 c0 -361 57 -864 136 -1206 195 -843 524 -1561 1019 -2225 599 -805 1411 -1445 2325 -1835 525 -223 1049 -357 1660 -422 169 -18 880 -18 1045 0 348 38 584 80 880 157 1556 403 2884 1480 3625 2940 312 615 490 1193 590 1915 24 173 40 429 40 638 l0 222 -790 0 -790 0 0 -189 c0 -827 -282 -1690 -778 -2381 -475 -661 -1127 -1167 -1872 -1449 -1228 -467 -2598 -303 -3690 440 -246 167 -473 365 -697 604 -706 755 -1113 1786 -1113 2816 l0 159 -795 0 -795 0 0 -184z"/>
 </g>
<g id="layer3" fill="#95d2d6" stroke="none">
 <path d="M3930 8841 c0 -761 227 -1544 639 -2201 297 -474 715 -908 1171 -1219 1092 -743 2462 -907 3690 -440 1233 468 2180 1532 2518 2829 87 334 132 675 132 1001 l0 189 -4075 0 -4075 0 0 -159z"/>
 </g>
<g id="layer4" fill="#4fb5ba" stroke="none">
 <path d="M0 5844 l0 -3156 82 -106 c771 -1003 1711 -1851 2776 -2501 l132 -81 5008 0 5009 0 163 101 c497 306 990 674 1445 1077 172 153 651 632 801 802 168 190 343 400 473 570 l111 145 0 3152 0 3153 -108 0 -109 0 -6 -282 c-48 -2087 -864 -4021 -2308 -5478 -1252 -1261 -2846 -2040 -4597 -2245 -522 -61 -1222 -61 -1744 0 -1503 176 -2892 774 -4055 1747 -1571 1313 -2575 3192 -2802 5243 -30 266 -41 439 -48 743 l-6 272 -109 0 -108 0 0 -3156z"/>
 </g>
<g id="layer5" fill="#65bfc4" stroke="none">
 <path d="M223 8728 c7 -304 18 -477 48 -743 227 -2051 1231 -3930 2802 -5243 1163 -973 2552 -1571 4055 -1747 522 -61 1222 -61 1744 0 1503 176 2892 774 4055 1747 1464 1224 2442 2948 2748 4842 61 377 92 729 102 1134 l6 282 -1061 0 -1062 0 0 -222 c-1 -739 -175 -1545 -487 -2258 -26 -58 -90 -190 -143 -295 -741 -1460 -2069 -2537 -3625 -2940 -296 -77 -532 -119 -880 -157 -165 -18 -876 -18 -1045 0 -611 65 -1135 199 -1660 422 -1322 563 -2393 1627 -2985 2964 -198 448 -349 964 -424 1446 -44 280 -71 608 -71 856 l0 184 -1062 0 -1061 0 6 -272z"/>
 </g>

</svg>