<!DOCTYPE svg PUBLIC "-//W3C//DTD SVG 20010904//EN" "http://www.w3.org/TR/2001/REC-SVG-20010904/DTD/svg10.dtd">
<svg version="1.0" xmlns="http://www.w3.org/2000/svg" width="1600px" height="900px" viewBox="0 0 16000 9000" preserveAspectRatio="xMidYMid meet">
<g id="layer1" fill="#39b54a" stroke="none">
 <path d="M9760 6304 c-91 -2 -505 -10 -920 -19 -415 -8 -987 -19 -1270 -25 -1671 -32 -1741 -34 -1751 -46 -9 -11 -14 -257 -39 -2179 -5 -412 -12 -869 -16 -1014 l-7 -263 119 -117 c133 -130 220 -196 333 -251 138 -69 192 -83 337 -88 125 -4 135 -3 218 26 112 38 185 83 261 157 116 114 173 227 219 437 6 25 7 26 34 13 107 -54 294 -59 412 -11 36 15 89 43 119 63 119 78 257 249 345 425 l39 76 56 -43 c111 -84 203 -115 340 -115 115 0 175 15 285 69 265 132 504 402 556 628 l12 52 38 -48 c47 -59 101 -104 160 -133 37 -18 62 -22 145 -23 88 0 109 3 170 29 250 104 539 398 631 642 39 104 57 246 44 352 -6 48 -15 103 -21 122 -16 53 -70 184 -80 195 -19 20 -6 23 65 18 152 -12 300 48 375 152 69 96 106 241 99 395 l-3 75 -145 72 c-80 40 -284 141 -455 225 l-310 152 -115 1 c-63 1 -189 0 -280 -1z"/>
 </g>

</svg>