<!DOCTYPE svg PUBLIC "-//W3C//DTD SVG 20010904//EN" "http://www.w3.org/TR/2001/REC-SVG-20010904/DTD/svg10.dtd">
<svg version="1.0" xmlns="http://www.w3.org/2000/svg" width="1600px" height="900px" viewBox="0 0 16000 9000" preserveAspectRatio="xMidYMid meet">
<g id="layer1" fill="#1a4e21" stroke="none">
 <path d="M7225 6303 c-444 -6 -1426 -32 -1435 -38 -6 -4 -10 -88 -10 -213 0 -114 -5 -450 -11 -747 l-10 -540 64 -61 c108 -103 225 -154 323 -140 69 9 140 44 180 88 36 41 84 130 84 158 0 13 15 16 93 15 71 0 100 4 126 19 47 25 126 109 162 173 l31 53 26 -18 c104 -71 218 -59 345 37 73 56 157 165 157 205 0 22 6 21 53 -16 37 -29 48 -33 102 -32 70 0 113 19 196 88 60 49 126 135 154 201 22 52 23 184 1 244 -9 24 -16 45 -16 47 0 2 18 4 40 4 56 0 115 33 147 81 24 36 27 52 28 122 l0 81 -190 95 -190 95 -115 1 c-63 1 -214 0 -335 -2z"/>
 </g>

</svg>