<!DOCTYPE svg PUBLIC "-//W3C//DTD SVG 20010904//EN" "http://www.w3.org/TR/2001/REC-SVG-20010904/DTD/svg10.dtd">
<svg version="1.0" xmlns="http://www.w3.org/2000/svg" width="1600px" height="900px" viewBox="0 0 16000 9000" preserveAspectRatio="xMidYMid meet">
<g id="layer1" fill="#2e913c" stroke="none">
 <path d="M9075 6303 c-204 -3 -1616 -31 -2175 -43 -250 -6 -552 -11 -670 -11 -118 -1 -262 -4 -320 -8 l-105 -6 -7 -390 c-3 -214 -11 -759 -17 -1210 -6 -451 -14 -930 -17 -1065 l-7 -246 59 -64 c183 -198 433 -330 624 -330 52 0 161 22 208 42 49 22 136 79 175 117 88 83 164 228 181 344 6 40 10 47 24 41 99 -41 199 -54 283 -34 155 35 297 153 416 345 7 11 27 49 45 85 l33 66 55 -41 c86 -65 150 -87 260 -93 83 -4 105 -1 172 22 220 73 454 294 537 504 12 29 21 65 21 79 0 24 5 21 57 -37 76 -83 141 -114 238 -114 89 1 163 29 270 100 201 134 352 318 416 509 19 57 23 91 23 185 0 124 -13 183 -63 295 l-28 60 79 -3 c155 -7 266 56 332 187 33 64 46 136 46 247 l0 94 -152 74 c-84 41 -260 126 -391 190 l-239 116 -106 -2 c-59 -1 -174 -3 -257 -5z"/>
 </g>

</svg>