<!DOCTYPE svg PUBLIC "-//W3C//DTD SVG 20010904//EN" "http://www.w3.org/TR/2001/REC-SVG-20010904/DTD/svg10.dtd">
<svg version="1.0" xmlns="http://www.w3.org/2000/svg" width="1600px" height="900px" viewBox="0 0 16000 9000" preserveAspectRatio="xMidYMid meet">
<g id="layer1" fill="#236d2d" stroke="none">
 <path d="M8190 6303 c-384 -6 -1858 -36 -2105 -41 l-290 -7 -7 -400 c-4 -220 -12 -712 -17 -1094 l-11 -694 35 -43 c50 -60 182 -163 258 -202 85 -42 152 -55 251 -50 132 7 243 70 318 180 41 59 78 146 78 183 0 33 8 35 70 18 111 -30 231 -2 331 78 50 39 138 156 175 232 l27 55 44 -34 c82 -63 223 -82 329 -46 168 59 356 242 401 392 l17 55 39 -42 c131 -142 314 -101 527 117 128 131 190 263 190 405 0 62 -25 168 -53 222 l-16 30 78 6 c175 12 256 109 256 307 l0 95 -75 37 c-41 20 -173 85 -293 143 l-217 105 -108 -2 c-59 -1 -163 -3 -232 -5z"/>
 </g>

</svg>