<!DOCTYPE svg PUBLIC "-//W3C//DTD SVG 20010904//EN" "http://www.w3.org/TR/2001/REC-SVG-20010904/DTD/svg10.dtd">
<svg version="1.0" xmlns="http://www.w3.org/2000/svg" width="1600px" height="900px" viewBox="0 0 16000 9000" preserveAspectRatio="xMidYMid meet">
<g id="layer1" fill="#987d4d" stroke="none">
 <path d="M7176 8142 c-7 -12 -30 -6756 -23 -6776 7 -18 34 -19 833 -13 455 3 830 9 834 14 5 4 5 1495 2 3313 l-7 3305 -45 6 c-25 4 -103 12 -175 18 -71 7 -191 18 -265 26 -74 8 -189 19 -255 25 -66 6 -178 17 -250 25 -71 7 -186 19 -255 25 -69 6 -182 18 -252 26 -150 17 -136 16 -142 6z"/>
 </g>

</svg>