<!DOCTYPE svg PUBLIC "-//W3C//DTD SVG 20010904//EN" "http://www.w3.org/TR/2001/REC-SVG-20010904/DTD/svg10.dtd">
<svg version="1.0" xmlns="http://www.w3.org/2000/svg" width="1600px" height="900px" viewBox="0 0 16000 9000" preserveAspectRatio="xMidYMid meet">
<g id="layer1" fill="#dbdbdb" stroke="none">
 <path d="M10200 4967 c-42 -15 -134 -82 -171 -123 -116 -131 -144 -234 -93 -344 45 -98 248 -276 519 -457 50 -33 124 -84 166 -114 l76 -54 42 -105 c74 -183 171 -436 171 -447 0 -3 -50 45 -112 107 -124 125 -220 201 -317 251 -83 43 -160 46 -236 10 -59 -29 -183 -150 -208 -203 -10 -21 -20 -38 -23 -38 -3 0 -29 20 -57 43 -209 176 -456 260 -620 212 -75 -22 -195 -103 -264 -179 -91 -101 -179 -264 -198 -368 -8 -42 -8 -42 -36 -27 -28 14 -174 39 -235 39 -56 0 -104 -16 -145 -49 l-26 -20 -69 87 c-92 116 -262 291 -356 366 -124 100 -265 166 -352 166 -95 0 -246 -142 -332 -313 l-26 -51 -46 55 c-131 157 -290 281 -385 301 -47 10 -61 9 -102 -7 -69 -26 -193 -147 -237 -230 l-34 -65 -40 36 c-128 116 -238 196 -339 245 -69 33 -161 33 -228 -1 -74 -37 -169 -121 -228 -200 l-53 -72 -55 62 c-67 76 -194 180 -257 210 -112 55 -182 33 -310 -96 -58 -58 -87 -95 -99 -130 -10 -27 -20 -51 -21 -53 -2 -1 -42 31 -91 74 -179 155 -334 241 -423 233 -137 -13 -327 -182 -420 -373 -38 -78 -40 -196 -5 -317 119 -414 662 -990 1069 -1134 52 -19 174 -18 220 1 102 43 198 196 212 340 8 80 -6 115 -45 115 -24 0 -36 -8 -56 -37 -14 -21 -25 -42 -25 -48 0 -6 -14 -27 -31 -48 -28 -33 -35 -37 -79 -37 -244 0 -740 455 -954 875 -58 112 -87 208 -89 292 -2 54 1 67 18 80 39 29 150 -6 245 -76 156 -115 396 -379 638 -704 47 -63 79 -97 91 -97 34 0 231 230 231 270 0 6 -13 39 -29 73 -133 289 -191 430 -191 464 0 36 95 -8 171 -79 104 -99 232 -276 316 -437 162 -310 481 -654 780 -840 149 -92 227 -121 328 -121 94 0 130 16 195 87 88 96 146 254 124 340 -7 32 -14 39 -37 41 -37 4 -63 -19 -89 -80 -28 -65 -59 -88 -118 -88 -81 0 -187 51 -335 161 -327 243 -632 650 -691 924 -18 81 -17 126 2 154 15 21 22 23 66 18 162 -20 446 -287 779 -733 54 -72 105 -137 114 -144 24 -20 53 -1 127 81 83 95 118 147 118 179 0 22 -45 129 -140 335 -13 28 -35 86 -50 130 -26 75 -27 80 -10 83 33 6 114 -46 181 -115 100 -104 137 -153 256 -343 134 -213 159 -255 248 -429 61 -118 121 -225 200 -354 38 -63 118 -172 154 -209 29 -31 42 -38 74 -38 34 0 46 7 96 58 58 60 111 153 111 195 0 14 -20 53 -45 88 -101 144 -275 409 -311 474 -131 235 -203 435 -218 610 -7 78 0 89 52 80 145 -24 345 -192 542 -454 l85 -113 1 -101 c1 -89 5 -115 37 -208 62 -181 239 -512 320 -596 24 -26 39 -33 67 -33 97 0 227 180 204 283 -3 18 -40 97 -80 177 -72 141 -74 146 -74 218 0 84 -18 134 -102 281 -26 46 -48 88 -48 92 0 5 19 9 43 9 99 0 231 -108 331 -270 31 -49 56 -93 56 -98 0 -18 123 -218 188 -304 81 -108 229 -254 311 -306 127 -82 253 -104 367 -65 60 20 158 115 193 187 27 55 39 139 24 158 -6 7 -13 37 -17 67 -27 207 -122 371 -300 513 -145 116 -347 140 -478 59 -59 -37 -64 -38 -72 -8 -38 129 -46 180 -46 286 0 134 19 217 60 262 26 27 33 29 105 29 194 0 385 -98 579 -298 78 -81 191 -233 240 -324 196 -369 513 -718 793 -874 100 -57 163 -74 263 -74 73 0 94 4 141 27 127 63 268 259 272 379 2 43 0 49 -20 52 -17 3 -29 -9 -56 -50 -46 -70 -83 -104 -136 -123 -126 -44 -319 22 -511 176 -164 132 -361 373 -418 512 -18 43 -49 101 -102 192 -46 79 -125 363 -106 382 2 2 30 -8 61 -22 78 -37 237 -166 370 -299 181 -182 511 -549 534 -595 26 -51 40 -57 78 -37 45 23 148 138 177 198 l26 53 -44 135 c-24 74 -60 178 -80 230 -19 52 -46 125 -60 163 -14 37 -27 71 -30 75 -15 24 -44 112 -38 112 13 0 327 -319 398 -405 77 -93 169 -225 243 -346 55 -92 84 -115 125 -105 52 13 126 97 146 165 13 45 -25 116 -149 286 -113 153 -503 512 -869 799 -67 52 -106 90 -118 115 -152 327 -305 606 -418 760 -59 81 -184 209 -232 237 -51 30 -126 39 -174 21z m99 -324 c40 -45 119 -168 156 -243 13 -28 -4 -14 -83 64 -96 94 -172 200 -172 239 0 16 2 16 29 3 16 -9 47 -37 70 -63z m-846 -1958 c91 -27 184 -108 248 -216 37 -62 87 -192 104 -266 6 -32 5 -33 -24 -33 -125 0 -360 237 -495 498 l-17 32 68 0 c38 0 89 -7 116 -15z"/>
 </g>

</svg>