<!DOCTYPE svg PUBLIC "-//W3C//DTD SVG 20010904//EN" "http://www.w3.org/TR/2001/REC-SVG-20010904/DTD/svg10.dtd">
<svg version="1.0" xmlns="http://www.w3.org/2000/svg" width="1600px" height="900px" viewBox="0 0 16000 9000" preserveAspectRatio="xMidYMid meet">
<g id="layer1" fill="#361e0d" stroke="none">
 <path d="M7464 4816 c-3 -8 -4 -23 -2 -33 3 -17 29 -18 518 -18 l515 0 0 30 0 30 -513 3 c-440 2 -513 0 -518 -12z"/>
 <path d="M7464 4506 c-3 -8 -4 -25 -2 -38 l3 -23 515 0 515 0 0 35 0 35 -513 3 c-438 2 -513 0 -518 -12z"/>
 <path d="M7464 4196 c-3 -8 -4 -25 -2 -38 l3 -23 515 0 515 0 0 35 0 35 -513 3 c-438 2 -513 0 -518 -12z"/>
 <path d="M7464 3896 c-3 -8 -4 -25 -2 -38 l3 -23 515 0 515 0 0 35 0 35 -513 3 c-438 2 -513 0 -518 -12z"/>
 <path d="M7464 3586 c-3 -8 -4 -23 -2 -33 3 -17 29 -18 518 -18 l515 0 0 30 0 30 -513 3 c-440 2 -513 0 -518 -12z"/>
 <path d="M7464 3276 c-3 -8 -4 -25 -2 -38 l3 -23 515 0 515 0 0 35 0 35 -513 3 c-438 2 -513 0 -518 -12z"/>
 <path d="M7851 3139 c-205 -4 -380 -10 -387 -13 -12 -5 -14 -62 -12 -343 l3 -338 507 -3 c475 -2 508 -1 516 15 5 10 11 169 13 353 l4 335 -135 1 c-74 1 -303 -3 -509 -7z"/>
 <path d="M7694 2340 l-161 -5 -46 -38 c-126 -103 -198 -231 -205 -362 -5 -98 12 -162 69 -258 44 -75 123 -141 215 -183 65 -29 105 -71 124 -131 15 -48 15 -48 69 -56 30 -4 151 -6 269 -5 l215 3 14 50 c20 66 31 77 137 133 140 73 233 174 276 301 26 77 25 141 -1 221 -34 105 -100 196 -209 286 l-64 54 -271 -2 c-148 -1 -342 -4 -431 -8z"/>
 </g>

</svg>