<!DOCTYPE svg PUBLIC "-//W3C//DTD SVG 20010904//EN" "http://www.w3.org/TR/2001/REC-SVG-20010904/DTD/svg10.dtd">
<svg version="1.0" xmlns="http://www.w3.org/2000/svg" width="1600px" height="900px" viewBox="0 0 16000 9000" preserveAspectRatio="xMidYMid meet">
<g id="layer1" fill="#111111" stroke="none">
 <path d="M7822 2750 c-67 -50 -122 -97 -122 -104 0 -7 8 -20 18 -28 16 -15 25 -10 121 63 58 43 111 85 119 93 14 13 26 6 108 -65 93 -80 113 -90 133 -65 12 14 1 25 -124 134 -52 44 -64 49 -83 30 -8 -8 -16 -6 -29 11 l-19 23 -122 -92z"/>
 </g>

</svg>