<!DOCTYPE svg PUBLIC "-//W3C//DTD SVG 20010904//EN" "http://www.w3.org/TR/2001/REC-SVG-20010904/DTD/svg10.dtd">
<svg version="1.0" xmlns="http://www.w3.org/2000/svg" width="1600px" height="900px" viewBox="0 0 16000 9000" preserveAspectRatio="xMidYMid meet">
<g id="layer1" fill="#e1e1e1" stroke="none">
 <path d="M7835 8878 c-3 -7 -4 -150 -3 -318 l3 -305 235 0 235 0 0 315 0 315 -233 3 c-181 2 -234 0 -237 -10z"/>
 <path d="M7847 7884 c-4 -4 -7 -101 -7 -216 0 -189 2 -209 18 -216 9 -3 114 -7 232 -7 l215 0 0 220 0 220 -226 3 c-124 1 -228 -1 -232 -4z"/>
 </g>
<g id="layer2" fill="#343434" stroke="none">
 <path d="M3684 8982 c3 -10 12 -42 20 -72 8 -30 24 -86 34 -125 18 -66 56 -207 107 -395 12 -47 35 -130 50 -185 15 -55 35 -131 45 -170 11 -38 26 -75 34 -81 9 -6 57 -21 108 -33 174 -40 273 -62 370 -81 54 -11 117 -24 140 -29 24 -5 70 -14 103 -20 33 -6 105 -20 160 -31 55 -10 186 -33 290 -50 105 -17 228 -37 275 -44 47 -8 123 -20 170 -26 47 -6 112 -15 145 -20 33 -5 119 -16 190 -25 72 -8 182 -22 245 -30 63 -7 167 -18 230 -24 63 -6 185 -17 270 -25 368 -35 781 -60 1005 -60 l180 -1 3 208 2 207 215 0 215 0 2 -212 3 -213 340 3 c531 4 1194 51 1645 117 52 8 133 19 180 25 47 6 119 17 160 25 41 7 109 19 150 25 221 36 556 107 825 176 121 31 230 58 242 61 39 9 38 7 123 338 10 39 27 104 38 145 11 41 53 197 92 345 39 149 73 276 75 283 4 9 -849 12 -4241 12 -4064 0 -4245 -1 -4240 -18z m4606 -412 l0 -300 -220 0 -220 0 0 300 0 300 220 0 220 0 0 -300z"/>
 </g>

</svg>